<mxfile host="Electron" modified="2023-10-07T17:34:09.959Z" agent="Mozilla/5.0 (Macintosh; Intel Mac OS X 10_15_7) AppleWebKit/537.36 (KHTML, like Gecko) draw.io/22.0.2 Chrome/114.0.5735.289 Electron/25.8.4 Safari/537.36" etag="Cw-D1zfGYULcONJ0Zv6D" version="22.0.2" type="device">
  <diagram name="Page-1" id="VdRr0r98T9GRrElv7Ly4">
    <mxGraphModel dx="801" dy="1118" grid="1" gridSize="10" guides="1" tooltips="1" connect="1" arrows="1" fold="1" page="0" pageScale="1" pageWidth="2000" pageHeight="2000" math="0" shadow="0">
      <root>
        <mxCell id="0" />
        <mxCell id="1" parent="0" />
        <mxCell id="BT--xsQcx5xekTCIpPdY-9" value="" style="rounded=0;whiteSpace=wrap;html=1;fontFamily=JetBrains Mono;dashed=1;fillColor=default;" vertex="1" parent="1">
          <mxGeometry x="880" y="80" width="1120" height="640" as="geometry" />
        </mxCell>
        <mxCell id="BT--xsQcx5xekTCIpPdY-10" value="AWS Cloud" style="points=[[0,0],[0.25,0],[0.5,0],[0.75,0],[1,0],[1,0.25],[1,0.5],[1,0.75],[1,1],[0.75,1],[0.5,1],[0.25,1],[0,1],[0,0.75],[0,0.5],[0,0.25]];outlineConnect=0;gradientColor=none;html=1;whiteSpace=wrap;fontSize=12;fontStyle=0;container=1;pointerEvents=0;collapsible=0;recursiveResize=0;shape=mxgraph.aws4.group;grIcon=mxgraph.aws4.group_aws_cloud_alt;strokeColor=#232F3E;fillColor=none;verticalAlign=top;align=left;spacingLeft=30;fontColor=#232F3E;dashed=0;" vertex="1" parent="1">
          <mxGeometry x="920" y="120" width="1040" height="560" as="geometry" />
        </mxCell>
        <mxCell id="BT--xsQcx5xekTCIpPdY-12" value="Region" style="points=[[0,0],[0.25,0],[0.5,0],[0.75,0],[1,0],[1,0.25],[1,0.5],[1,0.75],[1,1],[0.75,1],[0.5,1],[0.25,1],[0,1],[0,0.75],[0,0.5],[0,0.25]];outlineConnect=0;gradientColor=none;html=1;whiteSpace=wrap;fontSize=12;fontStyle=0;container=1;pointerEvents=0;collapsible=0;recursiveResize=0;shape=mxgraph.aws4.group;grIcon=mxgraph.aws4.group_region;strokeColor=#147EBA;fillColor=none;verticalAlign=top;align=left;spacingLeft=30;fontColor=#147EBA;dashed=1;" vertex="1" parent="BT--xsQcx5xekTCIpPdY-10">
          <mxGeometry x="40" y="40" width="960" height="480" as="geometry" />
        </mxCell>
        <mxCell id="BT--xsQcx5xekTCIpPdY-14" value="" style="rounded=1;whiteSpace=wrap;html=1;dashed=1;fillColor=none;arcSize=3;strokeColor=#0066CC;" vertex="1" parent="BT--xsQcx5xekTCIpPdY-12">
          <mxGeometry x="80" y="40" width="320" height="400" as="geometry" />
        </mxCell>
        <mxCell id="BT--xsQcx5xekTCIpPdY-16" value="VPC" style="points=[[0,0],[0.25,0],[0.5,0],[0.75,0],[1,0],[1,0.25],[1,0.5],[1,0.75],[1,1],[0.75,1],[0.5,1],[0.25,1],[0,1],[0,0.75],[0,0.5],[0,0.25]];outlineConnect=0;gradientColor=none;html=1;whiteSpace=wrap;fontSize=12;fontStyle=0;container=1;pointerEvents=0;collapsible=0;recursiveResize=0;shape=mxgraph.aws4.group;grIcon=mxgraph.aws4.group_vpc;strokeColor=#248814;fillColor=none;verticalAlign=top;align=left;spacingLeft=30;fontColor=#AAB7B8;dashed=0;" vertex="1" parent="BT--xsQcx5xekTCIpPdY-12">
          <mxGeometry x="40" y="80" width="880" height="320" as="geometry" />
        </mxCell>
        <mxCell id="BT--xsQcx5xekTCIpPdY-21" value="Internet&#xa;gateway" style="sketch=0;outlineConnect=0;fontColor=#232F3E;gradientColor=none;strokeColor=#232F3E;fillColor=#ffffff;dashed=0;verticalLabelPosition=bottom;verticalAlign=top;align=center;html=1;fontSize=12;fontStyle=0;aspect=fixed;shape=mxgraph.aws4.resourceIcon;resIcon=mxgraph.aws4.internet_gateway;" vertex="1" parent="BT--xsQcx5xekTCIpPdY-16">
          <mxGeometry x="400" y="-40" width="80" height="80" as="geometry" />
        </mxCell>
        <mxCell id="BT--xsQcx5xekTCIpPdY-22" value="" style="sketch=0;outlineConnect=0;fontColor=#232F3E;gradientColor=none;fillColor=#8C4FFF;strokeColor=none;dashed=0;verticalLabelPosition=bottom;verticalAlign=top;align=center;html=1;fontSize=12;fontStyle=0;aspect=fixed;pointerEvents=1;shape=mxgraph.aws4.application_load_balancer;" vertex="1" parent="BT--xsQcx5xekTCIpPdY-16">
          <mxGeometry x="400" y="120" width="80" height="80" as="geometry" />
        </mxCell>
        <mxCell id="BT--xsQcx5xekTCIpPdY-23" value="&lt;font color=&quot;#8c4fff&quot;&gt;Load&lt;br&gt;Balancer&lt;/font&gt;" style="text;html=1;align=center;verticalAlign=middle;resizable=0;points=[];autosize=1;strokeColor=none;fillColor=none;" vertex="1" parent="BT--xsQcx5xekTCIpPdY-16">
          <mxGeometry x="405" y="200" width="70" height="40" as="geometry" />
        </mxCell>
        <mxCell id="BT--xsQcx5xekTCIpPdY-25" value="" style="rounded=1;whiteSpace=wrap;html=1;dashed=1;fillColor=none;arcSize=3;strokeColor=#0066CC;" vertex="1" parent="BT--xsQcx5xekTCIpPdY-16">
          <mxGeometry x="520" y="-40" width="320" height="400" as="geometry" />
        </mxCell>
        <mxCell id="BT--xsQcx5xekTCIpPdY-26" value="&lt;font style=&quot;font-size: 14px;&quot; color=&quot;#0066cc&quot;&gt;eu-central-1b&lt;/font&gt;" style="text;html=1;align=center;verticalAlign=middle;resizable=0;points=[];autosize=1;strokeColor=none;fillColor=none;" vertex="1" parent="BT--xsQcx5xekTCIpPdY-16">
          <mxGeometry x="625" y="-40" width="110" height="30" as="geometry" />
        </mxCell>
        <mxCell id="BT--xsQcx5xekTCIpPdY-30" value="Public subnet" style="points=[[0,0],[0.25,0],[0.5,0],[0.75,0],[1,0],[1,0.25],[1,0.5],[1,0.75],[1,1],[0.75,1],[0.5,1],[0.25,1],[0,1],[0,0.75],[0,0.5],[0,0.25]];outlineConnect=0;gradientColor=none;html=1;whiteSpace=wrap;fontSize=12;fontStyle=0;container=1;pointerEvents=0;collapsible=0;recursiveResize=0;shape=mxgraph.aws4.group;grIcon=mxgraph.aws4.group_security_group;grStroke=0;strokeColor=#248814;fillColor=#E9F3E6;verticalAlign=top;align=left;spacingLeft=30;fontColor=#248814;dashed=0;" vertex="1" parent="BT--xsQcx5xekTCIpPdY-16">
          <mxGeometry x="560" y="40" width="240" height="240" as="geometry" />
        </mxCell>
        <mxCell id="BT--xsQcx5xekTCIpPdY-28" value="Security group" style="fillColor=none;strokeColor=#DD3522;verticalAlign=top;fontStyle=0;fontColor=#DD3522;whiteSpace=wrap;html=1;" vertex="1" parent="BT--xsQcx5xekTCIpPdY-16">
          <mxGeometry x="600" y="80" width="160" height="160" as="geometry" />
        </mxCell>
        <mxCell id="BT--xsQcx5xekTCIpPdY-31" value="" style="sketch=0;points=[[0,0,0],[0.25,0,0],[0.5,0,0],[0.75,0,0],[1,0,0],[0,1,0],[0.25,1,0],[0.5,1,0],[0.75,1,0],[1,1,0],[0,0.25,0],[0,0.5,0],[0,0.75,0],[1,0.25,0],[1,0.5,0],[1,0.75,0]];outlineConnect=0;fontColor=#232F3E;fillColor=#ED7100;strokeColor=#ffffff;dashed=0;verticalLabelPosition=bottom;verticalAlign=top;align=center;html=1;fontSize=12;fontStyle=0;aspect=fixed;shape=mxgraph.aws4.resourceIcon;resIcon=mxgraph.aws4.ec2;" vertex="1" parent="BT--xsQcx5xekTCIpPdY-16">
          <mxGeometry x="640" y="120" width="80" height="80" as="geometry" />
        </mxCell>
        <mxCell id="BT--xsQcx5xekTCIpPdY-32" value="&lt;font color=&quot;#dd3522&quot;&gt;EC2&lt;/font&gt;" style="text;html=1;align=center;verticalAlign=middle;resizable=0;points=[];autosize=1;strokeColor=none;fillColor=none;" vertex="1" parent="BT--xsQcx5xekTCIpPdY-16">
          <mxGeometry x="655" y="200" width="50" height="30" as="geometry" />
        </mxCell>
        <mxCell id="BT--xsQcx5xekTCIpPdY-17" value="Public subnet" style="points=[[0,0],[0.25,0],[0.5,0],[0.75,0],[1,0],[1,0.25],[1,0.5],[1,0.75],[1,1],[0.75,1],[0.5,1],[0.25,1],[0,1],[0,0.75],[0,0.5],[0,0.25]];outlineConnect=0;gradientColor=none;html=1;whiteSpace=wrap;fontSize=12;fontStyle=0;container=1;pointerEvents=0;collapsible=0;recursiveResize=0;shape=mxgraph.aws4.group;grIcon=mxgraph.aws4.group_security_group;grStroke=0;strokeColor=#248814;fillColor=#E9F3E6;verticalAlign=top;align=left;spacingLeft=30;fontColor=#248814;dashed=0;" vertex="1" parent="BT--xsQcx5xekTCIpPdY-12">
          <mxGeometry x="120" y="120" width="240" height="240" as="geometry" />
        </mxCell>
        <mxCell id="BT--xsQcx5xekTCIpPdY-15" value="&lt;font style=&quot;font-size: 14px;&quot; color=&quot;#0066cc&quot;&gt;eu-central-1a&lt;/font&gt;" style="text;html=1;align=center;verticalAlign=middle;resizable=0;points=[];autosize=1;strokeColor=none;fillColor=none;" vertex="1" parent="BT--xsQcx5xekTCIpPdY-12">
          <mxGeometry x="185" y="40" width="110" height="30" as="geometry" />
        </mxCell>
        <mxCell id="BT--xsQcx5xekTCIpPdY-18" value="Security group" style="fillColor=none;strokeColor=#DD3522;verticalAlign=top;fontStyle=0;fontColor=#DD3522;whiteSpace=wrap;html=1;" vertex="1" parent="BT--xsQcx5xekTCIpPdY-12">
          <mxGeometry x="160" y="160" width="160" height="160" as="geometry" />
        </mxCell>
        <mxCell id="BT--xsQcx5xekTCIpPdY-19" value="" style="sketch=0;points=[[0,0,0],[0.25,0,0],[0.5,0,0],[0.75,0,0],[1,0,0],[0,1,0],[0.25,1,0],[0.5,1,0],[0.75,1,0],[1,1,0],[0,0.25,0],[0,0.5,0],[0,0.75,0],[1,0.25,0],[1,0.5,0],[1,0.75,0]];outlineConnect=0;fontColor=#232F3E;fillColor=#ED7100;strokeColor=#ffffff;dashed=0;verticalLabelPosition=bottom;verticalAlign=top;align=center;html=1;fontSize=12;fontStyle=0;aspect=fixed;shape=mxgraph.aws4.resourceIcon;resIcon=mxgraph.aws4.ec2;" vertex="1" parent="BT--xsQcx5xekTCIpPdY-12">
          <mxGeometry x="200" y="200" width="80" height="80" as="geometry" />
        </mxCell>
        <mxCell id="BT--xsQcx5xekTCIpPdY-20" value="&lt;font color=&quot;#dd3522&quot;&gt;EC2&lt;/font&gt;" style="text;html=1;align=center;verticalAlign=middle;resizable=0;points=[];autosize=1;strokeColor=none;fillColor=none;" vertex="1" parent="BT--xsQcx5xekTCIpPdY-12">
          <mxGeometry x="215" y="280" width="50" height="30" as="geometry" />
        </mxCell>
        <mxCell id="2" value="" style="rounded=0;whiteSpace=wrap;html=1;fontFamily=JetBrains Mono;dashed=1;" parent="1" vertex="1">
          <mxGeometry x="160" y="80" width="600" height="360" as="geometry" />
        </mxCell>
        <mxCell id="3" value="" style="rounded=0;whiteSpace=wrap;html=1;fontFamily=JetBrains Mono;strokeColor=#000099;" parent="1" vertex="1">
          <mxGeometry x="200" y="120" width="520" height="280" as="geometry" />
        </mxCell>
        <mxCell id="4" value="" style="rounded=0;whiteSpace=wrap;html=1;strokeWidth=2;fillWeight=4;hachureGap=8;hachureAngle=45;fillColor=#000000;sketch=1;curveFitting=1;jiggle=2;fontFamily=JetBrains Mono;" parent="1" vertex="1">
          <mxGeometry x="240" y="160" width="200" height="200" as="geometry" />
        </mxCell>
        <mxCell id="5" value="&lt;font color=&quot;#000099&quot;&gt;City&lt;/font&gt;" style="text;html=1;align=center;verticalAlign=middle;resizable=0;points=[];autosize=1;strokeColor=none;fillColor=none;" parent="1" vertex="1">
          <mxGeometry x="440" y="90" width="40" height="30" as="geometry" />
        </mxCell>
        <mxCell id="6" value="Land" style="text;html=1;align=center;verticalAlign=middle;resizable=0;points=[];autosize=1;strokeColor=none;fillColor=none;" parent="1" vertex="1">
          <mxGeometry x="315" y="130" width="50" height="30" as="geometry" />
        </mxCell>
        <mxCell id="7" value="" style="rounded=0;whiteSpace=wrap;html=1;strokeWidth=2;fillWeight=4;hachureGap=8;hachureAngle=45;fillColor=#000000;sketch=1;curveFitting=1;jiggle=2;fontFamily=JetBrains Mono;" parent="1" vertex="1">
          <mxGeometry x="480" y="160" width="200" height="200" as="geometry" />
        </mxCell>
        <mxCell id="8" value="Land" style="text;html=1;align=center;verticalAlign=middle;resizable=0;points=[];autosize=1;strokeColor=none;fillColor=none;" parent="1" vertex="1">
          <mxGeometry x="555" y="130" width="50" height="30" as="geometry" />
        </mxCell>
        <mxCell id="BT--xsQcx5xekTCIpPdY-11" value="&lt;b&gt;&lt;font style=&quot;font-size: 18px;&quot;&gt;Single Tier&lt;/font&gt;&lt;/b&gt;" style="text;html=1;align=center;verticalAlign=middle;resizable=0;points=[];autosize=1;strokeColor=none;fillColor=none;" vertex="1" parent="1">
          <mxGeometry x="1380" y="80" width="120" height="40" as="geometry" />
        </mxCell>
      </root>
    </mxGraphModel>
  </diagram>
</mxfile>
